<?xml version="1.0" standalone="no"?>
<!DOCTYPE svg PUBLIC "-//W3C//DTD SVG 20010904//EN"
 "http://www.w3.org/TR/2001/REC-SVG-20010904/DTD/svg10.dtd">
<svg version="1.0" xmlns="http://www.w3.org/2000/svg"
 width="96.000000pt" height="96.000000pt" viewBox="0 0 96.000000 96.000000"
 preserveAspectRatio="xMidYMid meet">

<g transform="translate(0.000000,96.000000) scale(0.100000,-0.100000)"
fill="#000000" stroke="none">
<path d="M710 720 c-23 -23 -70 -120 -70 -144 0 -21 27 -38 47 -32 24 8 86
136 81 167 -4 31 -32 35 -58 9z"/>
<path d="M778 273 c-22 -27 -58 -93 -58 -107 0 -8 9 -16 20 -19 16 -4 20 0 20
19 0 13 9 46 19 74 21 55 21 58 -1 33z"/>
</g>
</svg>
